# xmcd CD database file
#
# Track frame offsets:
#	187
#	18167
#	33652
#	44830
#	64305
#	79575
#	96347
#	109907
#
# Disc length: 1700 seconds
#
# Revision: 4
# Processed by: cddbd v1.5.1PL0 Copyright (c) Steve Scherf et al.
# Submitted via: jetAudio 5
#
DISCID=6a06a208
DTITLE=The Judds - Collector's Series
DYEAR=1993
DGENRE=country
TTITLE0=Love Is Alive
TTITLE1=Isn't He A Strange One
TTITLE2=Sleepless Nights
TTITLE3=Water Of Love
TTITLE4=Have Mercy
TTITLE5=Cry Myself To Sleep
TTITLE6=I Wish She Wouldn't Treat You That Way
TTITLE7=Tears For You
EXTD=
EXTT0=
EXTT1=
EXTT2=
EXTT3=
EXTT4=
EXTT5=
EXTT6=
EXTT7=
PLAYORDER=
